<mxfile host="app.diagrams.net" modified="2023-11-06T19:51:26.841Z" agent="Mozilla/5.0 (Windows NT 10.0; Win64; x64; rv:109.0) Gecko/20100101 Firefox/119.0" etag="XnGYLTRz1wlIq22o_BcQ" version="21.7.4" type="github">
  <diagram id="3228e29e-7158-1315-38df-8450db1d8a1d" name="Page-1">
    <mxGraphModel dx="1434" dy="764" grid="1" gridSize="10" guides="1" tooltips="1" connect="1" arrows="1" fold="1" page="1" pageScale="1" pageWidth="1169" pageHeight="827" background="#000000" math="0" shadow="0">
      <root>
        <mxCell id="0" />
        <mxCell id="1" parent="0" />
        <mxCell id="21532" value="" style="ellipse;fillColor=#12AAB5;opacity=60;strokeColor=none;html=1;fontColor=#FFFFFF;whiteSpace=wrap;" parent="1" vertex="1">
          <mxGeometry x="179.5" y="113.5" width="500" height="500" as="geometry" />
        </mxCell>
        <mxCell id="21533" value="" style="ellipse;fillColor=#e85642;opacity=60;strokeColor=none;html=1;fontColor=#FFFFFF;whiteSpace=wrap;" parent="1" vertex="1">
          <mxGeometry x="489.5" y="113.5" width="500" height="500" as="geometry" />
        </mxCell>
        <mxCell id="21534" value="PIP-II" style="text;fontSize=38;align=center;verticalAlign=middle;html=1;fontColor=#FFFFFF;whiteSpace=wrap;" parent="1" vertex="1">
          <mxGeometry x="290" y="328.5" width="190" height="70" as="geometry" />
        </mxCell>
        <mxCell id="21535" value="ACORN" style="text;fontSize=38;align=center;verticalAlign=middle;html=1;fontColor=#FFFFFF;whiteSpace=wrap;" parent="1" vertex="1">
          <mxGeometry x="710" y="328.5" width="190" height="70" as="geometry" />
        </mxCell>
        <mxCell id="21536" value="Tradition" style="text;fontSize=24;align=center;verticalAlign=middle;html=1;fontColor=#FFFFFF;whiteSpace=wrap;" parent="1" vertex="1">
          <mxGeometry x="499.5" y="653.5" width="190" height="70" as="geometry" />
        </mxCell>
        <mxCell id="21538" value="Document description" style="text;align=center;html=1;fontColor=#FFFFFF;fontSize=16;whiteSpace=wrap;" parent="1" vertex="1">
          <mxGeometry x="260.5" y="200" width="119.5" height="36.5" as="geometry" />
        </mxCell>
        <mxCell id="21539" value="Tool description" style="text;align=center;html=1;fontColor=#FFFFFF;fontSize=16;whiteSpace=wrap;" parent="1" vertex="1">
          <mxGeometry x="750" y="210" width="140.5" height="30" as="geometry" />
        </mxCell>
        <mxCell id="21540" value="Responsibilities" style="text;align=center;html=1;fontColor=#FFFFFF;fontSize=16;whiteSpace=wrap;" parent="1" vertex="1">
          <mxGeometry x="524" y="260" width="120.5" height="36.5" as="geometry" />
        </mxCell>
        <mxCell id="xuAPnCkLONaZR8KV4Ptf-21540" value="Requirements Management Document Comparison" style="text;fontSize=24;align=center;verticalAlign=middle;html=1;fontColor=#FFFFFF;whiteSpace=wrap;" vertex="1" parent="1">
          <mxGeometry x="380" y="20" width="400.5" height="70" as="geometry" />
        </mxCell>
        <mxCell id="xuAPnCkLONaZR8KV4Ptf-21541" value="Requirements wording guideliens" style="text;align=center;html=1;fontColor=#FFFFFF;fontSize=16;whiteSpace=wrap;" vertex="1" parent="1">
          <mxGeometry x="630" y="150" width="140.5" height="30" as="geometry" />
        </mxCell>
        <mxCell id="xuAPnCkLONaZR8KV4Ptf-21542" value="Change control process" style="text;align=center;html=1;fontColor=#FFFFFF;fontSize=16;whiteSpace=wrap;" vertex="1" parent="1">
          <mxGeometry x="230" y="270" width="120.5" height="36.5" as="geometry" />
        </mxCell>
      </root>
    </mxGraphModel>
  </diagram>
</mxfile>
